<svg xmlns="http://www.w3.org/2000/svg" width="239" height="65" fill="none"><path fill="#170D07" d="M64 27h4v6.5l-2.5 2L62 32l-1-1.5 1-2c.5-.5 1.6-1.5 2-1.5z"/><path fill="#FFCA00" d="M228.655 39.58c-.634.069-1.158-.135-1.572-.61-.414-.474-.766-1.112-1.055-1.911-.289-.8-.512-1.692-.668-2.676a44.655 44.655 0 0 1-.364-2.957 76.629 76.629 0 0 1-.194-2.753 33.603 33.603 0 0 0-.162-2.118 537.411 537.411 0 0 0-.33-7.475c-.125-2.438-.148-4.633-.071-6.585s.332-3.542.765-4.769c.433-1.226 1.178-1.902 2.234-2.027.634-.068 1.156.083 1.564.451.442.332.803.81 1.083 1.433.316.621.548 1.353.697 2.196.185.84.318 1.702.398 2.583.234 3.176.406 6.533.516 10.07.144 3.5.295 6.804.455 9.913.029.565.046 1.255.052 2.07a9.882 9.882 0 0 1-.254 2.297 4.612 4.612 0 0 1-.962 1.962c-.469.52-1.18.823-2.132.907zm-.264-32.133c.021.424.111.791.269 1.102.079.173.195.362.347.567.151.169.295.215.432.137.172-.115.248-.35.23-.703a2.58 2.58 0 0 0-.266-1.049c-.121-.277-.253-.447-.398-.51a.943.943 0 0 0-.43-.085.815.815 0 0 1-.148.22.74.74 0 0 0-.036.32zm-3.404 38.326c-.056-1.095.284-2.051 1.022-2.869.737-.817 1.689-1.255 2.855-1.315 1.201-.061 2.228.276 3.08 1.011.853.736 1.307 1.652 1.363 2.747.056 1.095-.303 2.035-1.078 2.818-.774.784-1.762 1.206-2.963 1.268-1.166.06-2.157-.262-2.972-.964-.816-.702-1.251-1.6-1.307-2.696zm6.927-1.683a2.56 2.56 0 0 0-.324-1.153 1.462 1.462 0 0 0-.616-.606c-.254-.128-.519-.115-.795.041-.379.197-.558.507-.537.93.056.388.18.736.373 1.044.488.542.992.694 1.511.455a1.19 1.19 0 0 0 .254-.226.768.768 0 0 0 .134-.485zm-15.33-30.14c2.085.601 3.348 1.74 3.788 3.419a55.864 55.864 0 0 1 1.394 6.464c.402 2.317.507 4.72.316 7.21a25.543 25.543 0 0 1-1.899 7.537c-1.011 2.39-2.355 4.513-4.031 6.37-1.642 1.82-3.605 3.267-5.888 4.34-2.281 1.109-4.804 1.663-7.567 1.663a16.978 16.978 0 0 1-3.79-.338 17.709 17.709 0 0 1-3.457-1.098 13.621 13.621 0 0 1-2.901-1.658 12.115 12.115 0 0 1-2.242-2.276 14.911 14.911 0 0 1-1.625-2.68 23.474 23.474 0 0 1-1-2.925 17.033 17.033 0 0 1-.523-2.948 26.039 26.039 0 0 1-.199-2.86 41.378 41.378 0 0 1-.215-4.186 89.49 89.49 0 0 1 .093-4.415l-.006-.106c.029-.143.035-.356.021-.639.04-.604.129-1.282.268-2.033.138-.75.294-1.52.466-2.309a7.256 7.256 0 0 1 1.046-2.391 8.655 8.655 0 0 1 1.758-2.003 8.169 8.169 0 0 1 2.269-1.339 7.247 7.247 0 0 1 2.578-.504c1.772.016 3.165.582 4.179 1.7 1.013 1.116 1.481 2.651 1.404 4.603a150.55 150.55 0 0 1-.156 4.206 51.58 51.58 0 0 0-.056 4.095c.069 1.342.192 2.717.37 4.125a24.947 24.947 0 0 0 1.068 4.25l.006.106c.198.415.432.828.701 1.239.269.411.687.62 1.254.627.673 0 1.228-.24 1.663-.723.436-.483.795-1.086 1.077-1.809.28-.758.47-1.547.569-2.367.134-.857.235-1.642.305-2.354a23.68 23.68 0 0 0-.019-4.515 56.628 56.628 0 0 0-.599-4.433l-.102-.951c-.107-.703-.12-1.305-.039-1.805.091-.997.363-1.896.818-2.699a7.372 7.372 0 0 1 1.702-2.053 7.201 7.201 0 0 1 2.375-1.344 7.83 7.83 0 0 1 2.684-.51c.355.018.711.053 1.068.106a3.9 3.9 0 0 1 1.074.21zm2.248 3.444c.016-.39-.111-.791-.38-1.202a2.272 2.272 0 0 0-.613-.553c-.256-.164-.522-.169-.797-.013-.345.195-.506.504-.484.928.02.389.145.755.375 1.097.454.579.94.731 1.458.457.102-.076.204-.17.304-.282a.568.568 0 0 0 .137-.432zm-33.529 11.813c.437 2.99.363 5.703-.221 8.142-.583 2.438-1.536 4.577-2.859 6.416-1.323 1.84-2.911 3.337-4.765 4.495a17.254 17.254 0 0 1-5.83 2.371 16.383 16.383 0 0 1-6.153.209 14.388 14.388 0 0 1-5.745-2.203c-1.761-1.185-3.297-2.807-4.606-4.865-1.275-2.06-2.13-4.585-2.567-7.574-.32-2.109-.389-4.142-.206-6.1.181-1.993.736-3.952 1.665-5.877 1.348-2.726 3.275-4.88 5.78-6.46 2.54-1.582 5.294-2.45 8.262-2.602 2.261-.116 4.367.184 6.316.899 1.983.678 3.734 1.65 5.251 2.92a15.947 15.947 0 0 1 3.739 4.537 17.002 17.002 0 0 1 1.939 5.692zm-11.865 10.066a14.103 14.103 0 0 0 1.411-3.579 9.597 9.597 0 0 0 .125-3.779 10.845 10.845 0 0 0-.658-2.464 9.012 9.012 0 0 0-1.285-2.272 5.903 5.903 0 0 0-1.839-1.66 4.295 4.295 0 0 0-2.42-.566c-1.06.054-1.98.42-2.76 1.098-.782.642-1.431 1.455-1.947 2.438a10.419 10.419 0 0 0-1.056 3.242 11.122 11.122 0 0 0-.039 3.402c.157.984.434 1.891.831 2.721.43.793.925 1.476 1.486 2.05a6.396 6.396 0 0 0 1.976 1.227c.758.28 1.526.4 2.303.36.636-.033 1.319-.192 2.048-.477.728-.32 1.335-.9 1.824-1.74zm6.874-17.249c.016-.39-.111-.791-.38-1.203a2.289 2.289 0 0 0-.613-.553c-.256-.164-.522-.168-.798-.012-.344.195-.505.504-.483.928.019.389.144.754.375 1.097.454.579.94.73 1.458.456.102-.076.203-.17.304-.28a.572.572 0 0 0 .137-.433zM135.675 50.56c-.655 1.06-1.425 1.932-2.311 2.615a4.866 4.866 0 0 1-2.969 1.162 4.896 4.896 0 0 1-2.144-.368 5.615 5.615 0 0 1-1.865-1.127 6.197 6.197 0 0 1-1.367-1.79 6.677 6.677 0 0 1-.546-2.363 14.8 14.8 0 0 1 .245-3.52c.256-1.217.567-2.42.931-3.607.4-1.19.836-2.363 1.308-3.521.47-1.193.925-2.332 1.366-3.418.061-.18.106-.342.134-.485.064-.145.091-.306.082-.482-.02-.389-.273-.819-.757-1.29-.969-.942-2.048-1.95-3.237-3.022a66.53 66.53 0 0 1-3.247-3.235 26.162 26.162 0 0 1-2.617-3.373c-.696-1.133-1.071-2.23-1.125-3.29-.076-1.484.306-2.672 1.145-3.565.838-.929 1.929-1.428 3.271-1.496 1.166-.06 2.24.15 3.221.632a11.046 11.046 0 0 1 2.801 1.77 23.421 23.421 0 0 1 2.515 2.421 90.843 90.843 0 0 0 2.412 2.48c.7-.85 1.38-1.753 2.039-2.708a32.415 32.415 0 0 1 2.149-2.66 12.615 12.615 0 0 1 2.446-2.039c.892-.577 1.903-.894 3.033-.952a5.95 5.95 0 0 1 2.627.45 6.799 6.799 0 0 1 2.193 1.322 6.552 6.552 0 0 1 1.59 1.991c.429.757.663 1.525.702 2.302a4.767 4.767 0 0 1-.371 2.091L135.675 50.56zm11.888-32.438c.015-.39-.111-.791-.38-1.203a2.303 2.303 0 0 0-.613-.553c-.257-.164-.523-.168-.798-.012-.344.195-.505.504-.484.928.02.389.145.754.375 1.097.455.579.941.73 1.458.456.103-.076.204-.17.305-.28a.576.576 0 0 0 .137-.433zM88.471 52.977c-.654 1.06-1.424 1.933-2.31 2.616a4.867 4.867 0 0 1-2.97 1.161 4.899 4.899 0 0 1-2.144-.368 5.614 5.614 0 0 1-1.864-1.127 6.197 6.197 0 0 1-1.367-1.79 6.65 6.65 0 0 1-.546-2.363c-.06-1.165.022-2.339.245-3.519.256-1.218.567-2.42.931-3.608.4-1.19.835-2.363 1.308-3.52.47-1.194.925-2.333 1.365-3.418.062-.18.107-.342.135-.485.063-.145.09-.306.081-.483-.02-.388-.272-.818-.756-1.29a120.35 120.35 0 0 0-3.237-3.022 66.77 66.77 0 0 1-3.248-3.234 26.19 26.19 0 0 1-2.617-3.373c-.695-1.134-1.07-2.23-1.124-3.29-.076-1.484.305-2.673 1.145-3.566.838-.928 1.929-1.427 3.271-1.496 1.166-.06 2.24.151 3.22.632a11.04 11.04 0 0 1 2.801 1.77 23.369 23.369 0 0 1 2.516 2.421 91.89 91.89 0 0 0 2.411 2.48c.7-.85 1.38-1.753 2.04-2.707a32.33 32.33 0 0 1 2.149-2.661 12.616 12.616 0 0 1 2.446-2.038c.892-.577 1.903-.895 3.033-.953a5.95 5.95 0 0 1 2.627.45c.83.312 1.562.753 2.193 1.323a6.554 6.554 0 0 1 1.59 1.99c.428.758.663 1.525.702 2.303a4.767 4.767 0 0 1-.371 2.09L88.471 52.978zM100.36 20.54c.015-.39-.112-.79-.38-1.202a2.285 2.285 0 0 0-.613-.553c-.257-.164-.523-.168-.798-.013-.344.195-.506.505-.484.928.02.39.145.755.375 1.097.455.58.94.731 1.458.457.103-.076.204-.17.305-.281a.576.576 0 0 0 .137-.433zM46.284 54.66c-1.749-.938-2.95-2.276-3.606-4.013a54.281 54.281 0 0 1-2.451-8.43 57.878 57.878 0 0 1-1.07-8.447 67.157 67.157 0 0 1-.063-5.364c.086-1.775.279-3.556.577-5.343.126-.998.42-1.828.882-2.49.495-.698 1.37-1.274 2.621-1.728a50.413 50.413 0 0 1 5.45-1.5 33.545 33.545 0 0 1 5.278-.696c1.943-.1 3.77-.052 5.48.144 1.71.196 3.216.544 4.517 1.044 1.3.5 2.326 1.156 3.076 1.968.784.775 1.203 1.692 1.257 2.752a6.664 6.664 0 0 1-.347 2.568 5.535 5.535 0 0 1-1.171 2.026 6.022 6.022 0 0 1-1.843 1.37 5.62 5.62 0 0 1-2.307.596 57.114 57.114 0 0 1-4.728.03 65.448 65.448 0 0 0-5.523.07c-.318.017-.545.064-.683.142-.14.042-.203.187-.19.434l.032.636c.048.246.08.51.094.793l.043.847c.05.281.079.492.086.634 2.214-1.035 4.364-1.605 6.448-1.712 2.509-.128 4.505.123 5.99.756 1.52.63 2.33 1.917 2.43 3.86.108 2.12-.53 3.836-1.916 5.147-1.35 1.309-3.131 2.144-5.344 2.505-.35.089-.79.147-1.32.174a11.946 11.946 0 0 0-1.59.081 9.381 9.381 0 0 0-1.473.288c-.418.128-.709.338-.87.63.537.822 1.218 1.319 2.042 1.49.823.17 1.623.235 2.4.195 1.343-.069 2.64-.33 3.893-.784 1.287-.456 2.496-.712 3.627-.77a4.092 4.092 0 0 1 1.767.281c.579.219 1.073.53 1.483.934.41.404.735.866.974 1.385a3.85 3.85 0 0 1 .455 1.624c.08 1.554-.313 2.867-1.18 3.939-.865 1.072-1.954 1.942-3.266 2.612a17.27 17.27 0 0 1-4.228 1.491c-1.507.325-2.843.518-4.009.578a21 21 0 0 1-6.032-.542 23.635 23.635 0 0 1-5.692-2.206zm20.895-32.952c.016-.391-.111-.792-.38-1.203a2.285 2.285 0 0 0-.613-.553c-.257-.164-.522-.168-.798-.013-.344.195-.505.505-.484.929.02.388.145.754.375 1.096.455.58.941.731 1.458.457.103-.076.204-.17.305-.281a.574.574 0 0 0 .137-.433zM12.236 58.05c-1.186-.328-2.149-1.147-2.889-2.455-.704-1.31-1.275-2.769-1.712-4.376A34.093 34.093 0 0 1 6.8 46.32a95.366 95.366 0 0 1-.31-3.969 31.511 31.511 0 0 1 .036-3.456c.11-1.316.255-2.634.435-3.954.214-1.357.43-2.679.647-3.965.218-1.287.443-2.432.675-3.436.202-.895.508-1.832.918-2.81a14.252 14.252 0 0 1 1.61-2.792 9.448 9.448 0 0 1 2.177-2.13 5.217 5.217 0 0 1 2.818-.995c.919-.047 1.74.07 2.462.352.759.28 1.399.672 1.92 1.177a5.314 5.314 0 0 1 1.206 1.745c.317.657.493 1.338.53 2.045.023.46-.034 1.082-.17 1.868a49.52 49.52 0 0 1-.514 2.418c-.204.86-.41 1.703-.615 2.529a62.501 62.501 0 0 0-.48 2.043 75.346 75.346 0 0 1 3.327-1.445 10.333 10.333 0 0 1 3.259-.699 9.458 9.458 0 0 1 4.235.74c1.338.534 2.532 1.358 3.581 2.474 1.049 1.115 1.899 2.488 2.549 4.12.65 1.632 1.029 3.49 1.136 5.574.072 1.413-.044 2.943-.35 4.588a16.61 16.61 0 0 1-1.523 4.488 11.113 11.113 0 0 1-2.689 3.538c-1.085.942-2.387 1.451-3.907 1.529-1.802.092-3.296-.38-4.483-1.418-1.15-1.039-1.768-2.371-1.851-3.996a6.77 6.77 0 0 1 .127-1.654c.111-.608.24-1.217.385-1.826.18-.647.325-1.257.438-1.83a7.23 7.23 0 0 0 .128-1.653 2.134 2.134 0 0 0-.375-1.097c-.195-.344-.55-.698-1.064-1.061-.19.435-.436.837-.736 1.206-.264.368-.423.73-.475 1.088a40.316 40.316 0 0 0-.392 2.73c-.096.89-.14 1.76-.132 2.61a7.16 7.16 0 0 1-.495 2.788 7.597 7.597 0 0 1-1.422 2.305 6.838 6.838 0 0 1-2.15 1.598 6.83 6.83 0 0 1-2.623.666c-.883.045-1.686-.056-2.407-.302zm8.216-34.64c.015-.39-.112-.791-.38-1.203a2.284 2.284 0 0 0-.613-.553c-.257-.164-.523-.168-.798-.012-.344.195-.506.504-.484.928.02.389.145.754.375 1.097.455.579.94.731 1.458.456.102-.076.204-.17.304-.28a.574.574 0 0 0 .138-.433z"/><path fill="#170D07" fill-rule="evenodd" d="M220.791 36.997c.15.6.327 1.188.534 1.76.155.431.336.868.548 1.3-1.338 1.707-1.993 3.768-1.881 5.972.125 2.43 1.165 4.616 3.038 6.229 1.877 1.616 4.16 2.288 6.491 2.168 2.323-.119 4.528-.99 6.263-2.745 1.758-1.778 2.644-4.084 2.516-6.59a8.694 8.694 0 0 0-2.269-5.476 9.913 9.913 0 0 0 .589-1.777c.262-1.134.389-2.288.383-3.452l-.001-.01a52.522 52.522 0 0 0-.059-2.287 979.941 979.941 0 0 1-.451-9.837 243.24 243.24 0 0 0-.526-10.256l-.003-.045-.004-.044a25.866 25.866 0 0 0-.473-3.106c-.212-1.148-.556-2.293-1.09-3.376-.521-1.123-1.294-2.246-2.425-3.143-1.602-1.35-3.53-1.74-5.266-1.554l-.027.003-.028.003a7.366 7.366 0 0 0-4.123 1.863c-1.14 1.034-1.825 2.293-2.238 3.465-.661 1.872-.959 4.007-1.047 6.235a64.272 64.272 0 0 0-.046 3.053 4.227 4.227 0 0 1 1.176 2.019c.173.614.338 1.243.492 1.888.348 1.446.648 2.972.902 4.576.16.926.274 1.864.34 2.817l.013.204a30.764 30.764 0 0 1-.037 4.19c-.021.215-.044.429-.07.642v.004a25.926 25.926 0 0 1-.624 3.325 25.18 25.18 0 0 1-.597 1.982zm3.541-25.928c-.043.451-.074.927-.094 1.426-.077 1.952-.053 4.147.072 6.585.124 2.438.234 4.93.329 7.476a32.8 32.8 0 0 1 .162 2.117c.043.848.108 1.765.194 2.753.084.952.205 1.938.364 2.957.157.984.379 1.876.668 2.676l.009.023c.222.611.482 1.127.779 1.547.085.122.175.236.267.342a1.72 1.72 0 0 0 1.572.61l.075-.007.031-.003c.899-.097 1.574-.396 2.026-.896.337-.4.597-.852.782-1.354a5.437 5.437 0 0 0 .18-.609 9.943 9.943 0 0 0 .255-2.298 49.957 49.957 0 0 0-.053-2.07 997.38 997.38 0 0 1-.455-9.912 246.674 246.674 0 0 0-.403-8.456c-.036-.543-.073-1.08-.113-1.614a18.159 18.159 0 0 0-.112-.983 20.396 20.396 0 0 0-.286-1.6 9.502 9.502 0 0 0-.311-1.26 6.888 6.888 0 0 0-.385-.936l-.061-.13-.038-.078-.017-.033-.011-.021a3.813 3.813 0 0 0-.549-.799 2.946 2.946 0 0 0-.407-.372 1.773 1.773 0 0 0-.277-.205c-.314-.19-.683-.277-1.104-.26a2.869 2.869 0 0 0-.353.04 2.39 2.39 0 0 0-.951.391c-.459.322-.817.823-1.074 1.502a10.55 10.55 0 0 0-.353 1.187l-.012.051c-.118.507-.213 1.06-.286 1.658l-.025.212-.035.343zm4.327-2.52.024.052c.079.159.186.33.324.515a.486.486 0 0 0 .034.036c.12.122.236.163.349.123a.356.356 0 0 0 .049-.022c.159-.107.236-.318.232-.631l-.003-.072-.001-.02a2.88 2.88 0 0 0-.063-.46 2.44 2.44 0 0 0-.202-.569 1.488 1.488 0 0 0-.168-.307.59.59 0 0 0-.23-.204.941.941 0 0 0-.429-.084.844.844 0 0 1-.149.22.678.678 0 0 0-.038.27l.002.05a3.59 3.59 0 0 0 .056.47l.013.064a2.652 2.652 0 0 0 .08.285c.034.1.074.194.12.284zm-.083-.58-.076.173zm3.708 34.957a4.73 4.73 0 0 0-.336-.322l-.004-.003a4.043 4.043 0 0 0-2.152-.975l-.039-.005a4.987 4.987 0 0 0-.884-.032h-.006l-.031.002a4.301 4.301 0 0 0-1.165.217l-.068.023a3.852 3.852 0 0 0-1.591 1.074 4.274 4.274 0 0 0-.46.608 3.896 3.896 0 0 0-.219.406c-.2.43-.314.89-.342 1.379a4.43 4.43 0 0 0-.001.475c.056 1.095.492 1.994 1.307 2.696.679.586 1.481.906 2.404.962.184.011.374.012.568.002 1.201-.062 2.189-.484 2.964-1.268.209-.212.388-.435.537-.67a3.443 3.443 0 0 0 .529-1.552 4.128 4.128 0 0 0 .011-.596 3.827 3.827 0 0 0-.293-1.313 3.665 3.665 0 0 0-.727-1.106l-.002-.002zm-.568.27a2.376 2.376 0 0 0-.083-.177l-.019-.036-.025-.045-.004-.007a1.456 1.456 0 0 0-.612-.6.76.76 0 0 0-.606-.044 1.108 1.108 0 0 0-.21.096.977.977 0 0 0-.397.37.905.905 0 0 0-.116.385 1.127 1.127 0 0 0-.002.165 2.758 2.758 0 0 0 .283.889 2.077 2.077 0 0 0 .089.155l.072.077c.052.053.105.102.157.147.393.335.796.422 1.209.26l.073-.03.02-.013c.065-.041.143-.112.234-.213a.775.775 0 0 0 .135-.485 2.602 2.602 0 0 0-.198-.893z" clip-rule="evenodd"/><path fill="#170D07" fill-rule="evenodd" d="M185.406 29.987a17.364 17.364 0 0 0-1.027-4.292l-.041-.104-.054-.14a16.872 16.872 0 0 0-.92-1.936 16.299 16.299 0 0 0-1.135-1.77c.143-.762.301-1.54.473-2.33l.01-.042.01-.043a12.237 12.237 0 0 1 1.73-3.98 13.636 13.636 0 0 1 2.738-3.103 13.177 13.177 0 0 1 3.648-2.154l1.788 4.569-1.788-4.569a12.25 12.25 0 0 1 4.344-.847h.1c2.901.025 5.721 1.007 7.837 3.339.373.41.701.839.988 1.282a12.236 12.236 0 0 1 2.06-2.208 12.193 12.193 0 0 1 3.911-2.225 12.845 12.845 0 0 1 4.3-.8l.154-.001.153.007c.449.022.896.063 1.342.122a8.909 8.909 0 0 1 2.05.415c2.475.736 4.748 2.178 6.127 4.501-.015.83-.013 1.698.005 2.607l.001.077c.018.87.051 1.776.1 2.718.072 1.408.139 2.833.201 4.277l.002.042c.045 1.043.087 2.095.126 3.156.063.529.117 1.234.162 2.117a76.891 76.891 0 0 0 .194 2.754c.084.952.206 1.938.364 2.957a14.7 14.7 0 0 0 .661 2.654 30.243 30.243 0 0 1-1.232 3.491c-1.22 2.884-2.86 5.486-4.924 7.772-2.093 2.32-4.59 4.155-7.444 5.501-2.996 1.45-6.246 2.144-9.665 2.152a21.98 21.98 0 0 1-4.844-.438l-.017-.003-.017-.004a22.706 22.706 0 0 1-4.4-1.396 18.618 18.618 0 0 1-3.928-2.253l-.048-.036-.048-.037a17.143 17.143 0 0 1-3.145-3.202 19.918 19.918 0 0 1-2.154-3.56l-.046-.1-.042-.1a28.748 28.748 0 0 1-.912-2.51c.24-.42.463-.853.67-1.3a19.487 19.487 0 0 0 1.274-3.73l.018-.076c.212-.924.352-1.887.42-2.889l.008-.13a23.45 23.45 0 0 0-.138-4.2v-.002zm1.339-.003c.004 1.452.075 2.848.215 4.187.011.92.078 1.873.199 2.859.086.987.261 1.97.523 2.949.263.978.596 1.953 1 2.924.438.934.979 1.828 1.625 2.68a12.115 12.115 0 0 0 2.242 2.276 13.621 13.621 0 0 0 2.901 1.658c1.087.476 2.24.842 3.457 1.099 1.253.254 2.517.367 3.79.337 2.763 0 5.286-.554 7.567-1.663 2.283-1.073 4.246-2.52 5.888-4.34 1.676-1.857 3.02-3.98 4.031-6.37a25.542 25.542 0 0 0 1.899-7.536c.191-2.49.086-4.893-.316-7.21a69.544 69.544 0 0 0-.306-1.778 57.1 57.1 0 0 0-.695-3.207c-.118-.473-.24-.937-.368-1.393l-.025-.087a4.407 4.407 0 0 0-.388-.99 4.153 4.153 0 0 0-.577-.812l-.046-.05a4.783 4.783 0 0 0-.948-.775c-.516-.326-1.126-.59-1.829-.793a4.14 4.14 0 0 0-.577-.152 3.693 3.693 0 0 0-.497-.058 10.963 10.963 0 0 0-1.068-.105 7.807 7.807 0 0 0-2.684.51c-.87.292-1.662.74-2.375 1.343a7.375 7.375 0 0 0-1.702 2.054c-.455.802-.727 1.702-.818 2.698-.081.5-.068 1.102.039 1.805l.102.951a56.62 56.62 0 0 1 .599 4.433c.15 1.55.157 3.056.019 4.515a41.68 41.68 0 0 1-.305 2.354 10.428 10.428 0 0 1-.569 2.367 8.435 8.435 0 0 1-.186.435 5.466 5.466 0 0 1-.891 1.374c-.435.483-.99.724-1.663.723-.567-.007-.985-.215-1.254-.627a10.632 10.632 0 0 1-.701-1.24l-.006-.105a24.828 24.828 0 0 1-1.067-4.25 55.16 55.16 0 0 1-.371-4.125 51.58 51.58 0 0 1 .056-4.095c.071-1.385.123-2.787.156-4.205.077-1.953-.391-3.487-1.404-4.604-1.014-1.117-2.407-1.684-4.179-1.7a7.245 7.245 0 0 0-2.578.505 8.168 8.168 0 0 0-2.269 1.338 8.655 8.655 0 0 0-1.758 2.003 7.256 7.256 0 0 0-1.046 2.392 71.204 71.204 0 0 0-.466 2.308 17.701 17.701 0 0 0-.268 2.033c.014.283.008.496-.021.639l.006.106a89.483 89.483 0 0 0-.093 4.415zm30.051-12.562.041.075c.03.052.061.103.096.154.175.223.354.382.538.479.026.013.052.026.078.037.271.115.551.095.842-.06l.038-.028a2.072 2.072 0 0 0 .286-.276.578.578 0 0 0 .117-.409 1.849 1.849 0 0 0-.2-.885l-.029-.06a2.58 2.58 0 0 0-.151-.258 2.274 2.274 0 0 0-.613-.552.717.717 0 0 0-.797-.013.977.977 0 0 0-.304.259.946.946 0 0 0-.071.11c-.084.157-.12.344-.109.56a2.071 2.071 0 0 0 .185.757l.011.024c.013.029.027.058.042.086z" clip-rule="evenodd"/><path fill="#170D07" fill-rule="evenodd" d="M185.086 37.349c.583-2.44.657-5.153.22-8.142a17.251 17.251 0 0 0-1.055-3.845 16.74 16.74 0 0 0-1.892-3.443 15.564 15.564 0 0 0-1.443-1.74l-.049-.05a16.02 16.02 0 0 0-2.53-2.122 16.09 16.09 0 0 0-1.629-.962 17.085 17.085 0 0 0-2.331-.987c-1.949-.715-4.054-1.014-6.316-.899a17.031 17.031 0 0 0-8.262 2.602c-2.505 1.58-4.432 3.734-5.78 6.46-.929 1.925-1.484 3.884-1.665 5.877-.183 1.958-.114 3.991.206 6.1.437 2.989 1.292 5.513 2.567 7.574 1.31 2.058 2.845 3.68 4.606 4.865a14.388 14.388 0 0 0 5.745 2.203c2.071.319 4.122.25 6.153-.209a17.254 17.254 0 0 0 5.83-2.37c1.854-1.159 3.442-2.657 4.765-4.496 1.323-1.839 2.276-3.978 2.86-6.416zm-4.958 15.14a22.256 22.256 0 0 1-7.443 3.03 21.381 21.381 0 0 1-7.968.263 19.39 19.39 0 0 1-7.719-2.96l-.028-.018-.028-.02c-2.412-1.622-4.409-3.775-6.034-6.328l-.017-.027-.016-.027c-1.709-2.762-2.747-5.968-3.26-9.465-.375-2.472-.463-4.908-.24-7.298.24-2.628.97-5.165 2.141-7.59l.01-.023.011-.022c1.745-3.527 4.289-6.386 7.594-8.472l.012-.007.012-.008a22.044 22.044 0 0 1 10.651-3.351c2.853-.146 5.619.226 8.24 1.178 2.508.864 4.787 2.124 6.789 3.797a20.913 20.913 0 0 1 4.701 5.59c-.038.178-.076.355-.112.531a64.723 64.723 0 0 0-.3 1.53 17.701 17.701 0 0 0-.268 2.032 2.87 2.87 0 0 1-.02.639l.005.106a89.407 89.407 0 0 0-.091 3.414v.014c-.002.328-.003.657-.002.987a41.35 41.35 0 0 0 .215 4.186c.011.921.078 1.874.199 2.86a16.966 16.966 0 0 0 .523 2.948c.239.89.537 1.778.893 2.663a21.83 21.83 0 0 1-2.293 4.044c-1.684 2.341-3.739 4.291-6.157 5.805zm-7.094-25.31a5.898 5.898 0 0 0-1.838-1.66 4.29 4.29 0 0 0-2.421-.566c-1.06.054-1.98.42-2.76 1.098-.781.642-1.431 1.455-1.947 2.438a10.42 10.42 0 0 0-1.056 3.242 11.09 11.09 0 0 0-.038 3.402c.156.984.433 1.891.83 2.721.43.793.925 1.476 1.486 2.05a6.398 6.398 0 0 0 1.976 1.227c.758.28 1.526.4 2.303.36.636-.033 1.319-.192 2.048-.477.728-.32 1.336-.9 1.824-1.74a14.103 14.103 0 0 0 1.411-3.58 9.579 9.579 0 0 0 .125-3.779 10.795 10.795 0 0 0-.658-2.464 9.012 9.012 0 0 0-1.285-2.272zm5.245-5.127a2.352 2.352 0 0 0 .137.229c.454.579.94.73 1.458.456l.038-.029a2.13 2.13 0 0 0 .266-.252.572.572 0 0 0 .137-.432 1.849 1.849 0 0 0-.229-.945 2.97 2.97 0 0 0-.151-.258 2.272 2.272 0 0 0-.613-.553.712.712 0 0 0-.772-.026.974.974 0 0 0-.329.272.917.917 0 0 0-.153.33 1.205 1.205 0 0 0-.027.34 2.072 2.072 0 0 0 .238.868zm1.063-.35-.027-.025.027.025.329.296-.329-.296zm-10.087 14.796a8.893 8.893 0 0 0 .734-1.967 4.59 4.59 0 0 0 .051-1.825l-.008-.052-.008-.052a5.824 5.824 0 0 0-.361-1.329 4.022 4.022 0 0 0-.573-1.02l-.053-.069-.05-.07-.005-.006a3.174 3.174 0 0 0-.488.706 5.445 5.445 0 0 0-.544 1.703 6.121 6.121 0 0 0-.034 1.856c.078.482.2.88.348 1.214.17.296.335.523.487.697.101.077.196.13.289.171.091.03.159.04.215.043z" clip-rule="evenodd"/><path fill="#170D07" fill-rule="evenodd" d="m140.079 52.942-.149.242c-.917 1.487-2.052 2.807-3.431 3.887a9.863 9.863 0 0 1-5.849 2.26 9.897 9.897 0 0 1-4.204-.699 10.624 10.624 0 0 1-3.411-2.078 11.193 11.193 0 0 1-2.465-3.22l-.067-.13-.06-.135a11.645 11.645 0 0 1-.964-4.124 19.82 19.82 0 0 1 .325-4.703l.01-.052.011-.051a46.399 46.399 0 0 1 1.043-4.044l.02-.063.021-.063a63.66 63.66 0 0 1 1.406-3.789c.205-.522.409-1.034.609-1.536a128.59 128.59 0 0 0-1.73-1.589l-.029-.026-.029-.027a71.727 71.727 0 0 1-3.491-3.477l-.026-.028-.025-.028a31.198 31.198 0 0 1-3.114-4.02l-.031-.048-.031-.05c-1.024-1.668-1.75-3.568-1.857-5.649-.129-2.519.524-5.124 2.461-7.208 1.794-1.967 4.152-2.973 6.694-3.103 1.917-.098 3.808.242 5.575 1.087a16.05 16.05 0 0 1 3.927 2.487c.423.351.835.715 1.238 1.09.308-.37.622-.733.941-1.086l.037-.041.038-.04a17.612 17.612 0 0 1 3.393-2.822c1.67-1.074 3.531-1.632 5.467-1.73a10.95 10.95 0 0 1 4.721.793 11.801 11.801 0 0 1 3.651 2.212c1.1.949 2.008 2.077 2.691 3.37.739 1.332 1.216 2.82 1.298 4.427a9.784 9.784 0 0 1-.742 4.254l-.046.11-13.826 29.44zm1.513-39.489a5.868 5.868 0 0 0-2.038.828 12.65 12.65 0 0 0-2.446 2.038c-.387.43-.768.877-1.143 1.344-.34.424-.675.862-1.005 1.317a40.5 40.5 0 0 1-2.04 2.708 90.7 90.7 0 0 1-2.412-2.48 23.87 23.87 0 0 0-2.515-2.422 11.046 11.046 0 0 0-2.801-1.77c-.981-.48-2.054-.691-3.22-.631-1.343.068-2.433.567-3.271 1.495-.84.894-1.222 2.082-1.146 3.566.054 1.06.429 2.157 1.125 3.29a26.155 26.155 0 0 0 2.617 3.373 66.933 66.933 0 0 0 3.247 3.235 119.192 119.192 0 0 1 3.237 3.022c.485.471.737.901.757 1.29.009.176-.018.337-.082.482a3.841 3.841 0 0 1-.134.485 344.96 344.96 0 0 0-1.366 3.418 59.895 59.895 0 0 0-1.308 3.52 41.673 41.673 0 0 0-.931 3.608 14.853 14.853 0 0 0-.245 3.52c.044.848.226 1.636.546 2.363.355.69.81 1.287 1.367 1.79a5.623 5.623 0 0 0 1.865 1.127 4.896 4.896 0 0 0 2.144.368 4.866 4.866 0 0 0 2.969-1.162c.886-.683 1.657-1.555 2.311-2.615l13.655-29.075c.13-.315.226-.632.289-.952.074-.377.101-.756.082-1.139l-.008-.114a4.821 4.821 0 0 0-.266-1.254 5.836 5.836 0 0 0-.429-.934 6.59 6.59 0 0 0-.609-.961l-.053-.069a6.756 6.756 0 0 0-.946-.978 6.69 6.69 0 0 0-1.552-1.038 7.185 7.185 0 0 0-.623-.267 5.923 5.923 0 0 0-2.626-.45 6.678 6.678 0 0 0-.996.124zm4.205 2.887-.026.014a.983.983 0 0 0-.303.258.832.832 0 0 0-.071.111 1.049 1.049 0 0 0-.11.559 2.575 2.575 0 0 0 .032.27c.03.167.081.329.153.486v.001a2.268 2.268 0 0 0 .19.34 2.223 2.223 0 0 0 .385.382c.341.248.699.273 1.074.074l.038-.029a2.2 2.2 0 0 0 .266-.252.576.576 0 0 0 .137-.432 1.545 1.545 0 0 0-.006-.215l-.007-.065a1.96 1.96 0 0 0-.187-.605l-.029-.06-.042-.078c-.033-.06-.07-.12-.109-.18a2.287 2.287 0 0 0-.613-.553.85.85 0 0 0-.214-.099.724.724 0 0 0-.558.073zm-21.503 19.61.005.005a.02.02 0 0 0-.003-.004l-.002-.002zM92.88 55.36l-.15.241c-.917 1.487-2.052 2.807-3.43 3.887a9.863 9.863 0 0 1-5.85 2.26 9.896 9.896 0 0 1-4.203-.698 10.62 10.62 0 0 1-3.411-2.079 11.196 11.196 0 0 1-2.465-3.219l-.068-.131-.06-.135a11.648 11.648 0 0 1-.963-4.124 19.82 19.82 0 0 1 .325-4.703l.01-.051.01-.052a46.428 46.428 0 0 1 1.044-4.043l.02-.063.02-.063c.43-1.28.899-2.543 1.406-3.79l.61-1.536c-.544-.509-1.12-1.038-1.73-1.588l-.03-.027-.029-.027a71.803 71.803 0 0 1-3.49-3.477l-.026-.027-.025-.028a31.173 31.173 0 0 1-3.114-4.02l-.032-.049-.03-.049a14.79 14.79 0 0 1-.415-.72c.49-.57.85-1.21 1.081-1.924.278-.793.394-1.65.347-2.568a4.292 4.292 0 0 0-.07-.581c-.154-.818-.55-1.541-1.187-2.17a6.722 6.722 0 0 0-1.272-1.063 9.037 9.037 0 0 1 2.12-3.832c1.794-1.967 4.152-2.972 6.694-3.102 1.917-.099 3.808.242 5.574 1.086a16.04 16.04 0 0 1 3.927 2.488c.423.35.836.714 1.238 1.09.309-.37.623-.733.941-1.086l.037-.042.038-.04a17.62 17.62 0 0 1 3.395-2.822c1.67-1.074 3.53-1.631 5.465-1.73a10.95 10.95 0 0 1 4.722.793 11.8 11.8 0 0 1 3.651 2.213 11.54 11.54 0 0 1 2.69 3.37c.739 1.331 1.216 2.82 1.299 4.427a9.77 9.77 0 0 1-.743 4.253l-.045.111-13.827 29.44zm1.512-39.49a5.87 5.87 0 0 0-2.037.829 12.61 12.61 0 0 0-2.446 2.038 31.462 31.462 0 0 0-2.149 2.66 40.57 40.57 0 0 1-2.04 2.709 92.046 92.046 0 0 1-2.412-2.48 22.978 22.978 0 0 0-2.515-2.422 11.042 11.042 0 0 0-2.8-1.77c-.981-.48-2.055-.692-3.22-.632-1.343.069-2.434.567-3.272 1.496-.84.893-1.222 2.082-1.146 3.566.055 1.06.43 2.156 1.125 3.29a26.181 26.181 0 0 0 2.617 3.373 66.816 66.816 0 0 0 3.248 3.234 120.355 120.355 0 0 1 3.237 3.022c.484.472.737.901.757 1.29.009.177-.019.338-.082.483a3.749 3.749 0 0 1-.135.485c-.44 1.085-.895 2.224-1.365 3.417a59.535 59.535 0 0 0-1.308 3.521 41.35 41.35 0 0 0-.931 3.608 14.816 14.816 0 0 0-.245 3.52c.044.847.226 1.635.546 2.363.354.69.81 1.287 1.367 1.79a5.615 5.615 0 0 0 1.864 1.126 4.9 4.9 0 0 0 2.145.368 4.867 4.867 0 0 0 2.969-1.161c.886-.683 1.656-1.555 2.31-2.616l13.655-29.074c.13-.316.227-.633.289-.952a4.588 4.588 0 0 0 .075-1.253 4.769 4.769 0 0 0-.267-1.254 5.83 5.83 0 0 0-.428-.934 6.426 6.426 0 0 0-.663-1.03 6.695 6.695 0 0 0-.927-.961l-.018-.017a6.702 6.702 0 0 0-1.552-1.039 7.28 7.28 0 0 0-.623-.267 5.933 5.933 0 0 0-2.627-.45c-.343.018-.675.06-.996.125zm4.205 2.888-.025.013a.978.978 0 0 0-.303.259.855.855 0 0 0-.072.11c-.084.157-.12.344-.109.56a2.097 2.097 0 0 0 .185.757l.011.024a2.102 2.102 0 0 0 .18.315c.09.116.183.215.276.297.036.03.072.06.108.085m-.25-2.42a.725.725 0 0 1 .772.026c.256.164.46.348.612.553.04.06.076.12.11.18l.041.078.03.06a2.03 2.03 0 0 1 .194.67c.007.072.009.143.006.214a.576.576 0 0 1-.137.432 2.22 2.22 0 0 1-.267.253m-.861-1.523.088.157zm0 0 .088.157zm-33.739 2.36a11.244 11.244 0 0 1 .103-2.16.711.711 0 0 1 .724.05c.256.165.46.35.612.554.27.411.396.812.38 1.203a.624.624 0 0 1-.06.322.517.517 0 0 1-.076.11 2.171 2.171 0 0 1-.305.281c-.468.248-.911.147-1.328-.304a2.529 2.529 0 0 1-.05-.056zm33.973-1.947-.117-.207z" clip-rule="evenodd"/><path fill="#170D07" fill-rule="evenodd" d="M55.075 43.76a7.732 7.732 0 0 0-.157.042c-.418.128-.708.338-.87.63.395.604.867 1.032 1.417 1.285a2.81 2.81 0 0 0 .625.204 10.335 10.335 0 0 0 .897.145 9.277 9.277 0 0 0 1.504.05 13.636 13.636 0 0 0 1.495-.158 13.304 13.304 0 0 0 2.397-.625c1.287-.456 2.496-.712 3.627-.77a4.128 4.128 0 0 1 1.768.281c.578.219 1.072.53 1.482.934.41.404.735.866.974 1.385.275.517.427 1.058.456 1.624.08 1.554-.314 2.867-1.18 3.939-.866 1.072-1.955 1.942-3.267 2.612a17.277 17.277 0 0 1-4.228 1.491c-1.506.325-2.843.518-4.009.578a20.996 20.996 0 0 1-6.032-.542 23.634 23.634 0 0 1-5.692-2.206c-1.748-.937-2.95-2.275-3.606-4.013a54.277 54.277 0 0 1-2.451-8.429 57.88 57.88 0 0 1-1.07-8.447 67.205 67.205 0 0 1-.063-5.364c.087-1.775.279-3.556.577-5.343.126-.998.42-1.828.882-2.49.496-.698 1.37-1.274 2.621-1.728a50.407 50.407 0 0 1 5.45-1.5 33.52 33.52 0 0 1 5.278-.696c1.943-.1 3.77-.052 5.48.144.628.072 1.228.164 1.801.277.988.195 1.893.45 2.716.767a11.512 11.512 0 0 1 .52.215c.84.372 1.549.816 2.13 1.334.15.134.293.274.427.419a4.786 4.786 0 0 1 .549.65c.061.089.118.178.171.27m3.68-2.287c-.695.809-1.038 1.845-1.03 3.107.001.095.004.19.009.288l.001.03c.01.193.03.387.061.582.123.77.41 1.557.862 2.364.064.115.131.23.202.345a23.834 23.834 0 0 0 1.132 1.6 10.533 10.533 0 0 1-2.383 3.96c.885 1.49 1.248 3.111 1.326 4.638.096 1.865-.184 3.672-.883 5.325a9.045 9.045 0 0 1 2.097 1.538 9.67 9.67 0 0 1 1.95 2.73c.564 1.106.9 2.314.965 3.586.134 2.614-.543 5.183-2.285 7.338-1.336 1.654-2.99 2.956-4.882 3.922a22.275 22.275 0 0 1-5.446 1.926c-1.692.365-3.304.606-4.808.683a25.996 25.996 0 0 1-7.461-.674 28.628 28.628 0 0 1-6.888-2.663c-2.73-1.467-4.8-3.701-5.914-6.647m27.623-12.84c.704-1.11 1.017-2.433.939-3.968-.043-.838-.218-1.554-.525-2.148-.405-.783-1.04-1.354-1.905-1.713a8.548 8.548 0 0 0-1.458-.463c-1.258-.286-2.768-.383-4.532-.293a14.7 14.7 0 0 0-.366.023h-.004a14.846 14.846 0 0 0-1.604.213c-.291.055-.584.118-.878.19a18.012 18.012 0 0 0-2.122.662c-.21.08-.42.163-.632.251-.02.01-.042.018-.062.027-.26.109-.52.224-.78.346a5.622 5.622 0 0 0-.085-.634l-.044-.848a5.624 5.624 0 0 0-.093-.792l-.033-.636c-.013-.247.05-.392.19-.435.138-.078.366-.125.684-.14a65.487 65.487 0 0 1 5.522-.071l.213.006c1.622.047 3.127.035 4.515-.036a5.617 5.617 0 0 0 2.307-.596 6.554 6.554 0 0 0 .848-.496 5.872 5.872 0 0 0 .995-.874 5.532 5.532 0 0 0 1.172-2.026 6.053 6.053 0 0 0 .262-1.021c.049-.288.079-.583.09-.885a7.555 7.555 0 0 0-.006-.662m-3.089-.822a2.077 2.077 0 0 0 .137.23c.454.578.94.73 1.458.456a1.935 1.935 0 0 0 .304-.281.573.573 0 0 0 .137-.433 1.857 1.857 0 0 0-.23-.944 2.57 2.57 0 0 0-.15-.258 1.995 1.995 0 0 0-.246-.272l-.02-.019a2.62 2.62 0 0 0-.347-.262.718.718 0 0 0-.798-.013.979.979 0 0 0-.303.259.845.845 0 0 0-.071.11c-.084.157-.12.344-.11.56a2.068 2.068 0 0 0 .185.755v.002l.011.024a2.896 2.896 0 0 0 .043.086zm-.006-.143.662-.433zM57.98 43.433a11.976 11.976 0 0 0-1.59.081 9.561 9.561 0 0 0-1.316.246m13.013-22.1.023.084zm-2.466 17.917a6.17 6.17 0 0 1-.976 1.177c-.88.853-1.944 1.505-3.191 1.956l-.02.007a12.05 12.05 0 0 1-2.134.542 6.04 6.04 0 0 1-.949.149c-.118.01-.242.018-.37.025m13.873-25.489a4.7 4.7 0 0 0-.355.354 4.126 4.126 0 0 0-.126.14m.48-.494a9.482 9.482 0 0 0-1.284-1.613c-1.374-1.458-3.077-2.468-4.878-3.16-1.775-.683-3.707-1.112-5.743-1.345-2.017-.231-4.121-.283-6.305-.17a38.545 38.545 0 0 0-6.064.798c-1.953.416-3.95.968-5.99 1.648l-.061.02-.06.023c-1.716.622-3.667 1.663-4.996 3.535l-.01.015-.01.015c-1.005 1.438-1.519 3.045-1.73 4.619a50.974 50.974 0 0 0-.625 5.835l-.002.05-.002.05a72.082 72.082 0 0 0 .049 5.387c.12.116.239.235.355.357l.049.051c1.049 1.115 1.898 2.489 2.549 4.12.531 1.334.881 2.82 1.05 4.456v.004c.037.364.066.735.085 1.115.073 1.413-.044 2.942-.35 4.587a17.404 17.404 0 0 1-.563 2.186c.216.63.443 1.258.68 1.887" clip-rule="evenodd"/><path fill="#170D07" fill-rule="evenodd" d="M19.204 56.312a6.855 6.855 0 0 1-1.94 1.375 6.832 6.832 0 0 1-2.622.666c-.883.045-1.685-.056-2.406-.302-1.186-.33-2.15-1.148-2.89-2.456-.704-1.31-1.275-2.769-1.711-4.376a34.091 34.091 0 0 1-.836-4.899 95.386 95.386 0 0 1-.31-3.97 31.516 31.516 0 0 1 .036-3.455 75.56 75.56 0 0 1 .435-3.954c.214-1.357.43-2.679.647-3.965.218-1.287.443-2.432.675-3.436.202-.896.508-1.832.919-2.81.444-1.014.98-1.945 1.61-2.792a9.448 9.448 0 0 1 2.176-2.13 5.182 5.182 0 0 1 2.818-.994 6.782 6.782 0 0 1 1.282.048c.42.058.813.16 1.18.303.148.054.29.113.428.175a5.24 5.24 0 0 1 2.698 2.747 5.307 5.307 0 0 1 .53 2.045c.015.3-.004.67-.057 1.111a12.563 12.563 0 0 1-.113.757 39.229 39.229 0 0 1-.203 1.027c-.094.447-.197.91-.311 1.39a235.226 235.226 0 0 1-.615 2.53 62.504 62.504 0 0 0-.48 2.043 76.765 76.765 0 0 1 3.327-1.445 10.278 10.278 0 0 1 3.259-.699 9.458 9.458 0 0 1 4.236.74c1.338.534 2.531 1.358 3.58 2.473 1.05 1.116 1.899 2.49 2.55 4.12.65 1.632 1.028 3.49 1.135 5.575.072 1.413-.044 2.943-.35 4.588a16.61 16.61 0 0 1-1.523 4.488 11.116 11.116 0 0 1-2.688 3.538c-1.086.942-2.388 1.451-3.907 1.529-1.802.092-3.297-.38-4.483-1.418a5.541 5.541 0 0 1-1.116-1.372c-.44-.768-.686-1.643-.736-2.624a6.684 6.684 0 0 1 .128-1.654c.11-.608.238-1.217.384-1.827a23.694 23.694 0 0 0 .438-1.829 8.613 8.613 0 0 0 .13-1.127 5.788 5.788 0 0 0-.002-.526 2.134 2.134 0 0 0-.375-1.097c-.195-.344-.55-.698-1.064-1.061-.19.434-.436.837-.735 1.206-.265.368-.424.73-.476 1.087l-.01.061a49.439 49.439 0 0 0-.154.93l-.006.038a39.464 39.464 0 0 0-.214 1.634l-.008.067-.002.025a22.75 22.75 0 0 0-.127 1.983v.032a21.73 21.73 0 0 0-.003.57 7.495 7.495 0 0 1-.142 1.602c-.082.408-.2.804-.352 1.187a7.597 7.597 0 0 1-1.634 2.528zm-.79-32.874.038.068.003.006c.03.052.062.104.096.155.303.386.62.582.951.589a.888.888 0 0 0 .125-.007 1.1 1.1 0 0 0 .382-.125l.038-.03c.09-.07.179-.154.267-.252a.574.574 0 0 0 .137-.432 1.813 1.813 0 0 0-.2-.885 2.343 2.343 0 0 0-.071-.137c-.034-.06-.07-.12-.11-.18a2.285 2.285 0 0 0-.612-.554.732.732 0 0 0-.418-.126.792.792 0 0 0-.38.114.979.979 0 0 0-.303.258.846.846 0 0 0-.072.112.975.975 0 0 0-.109.41 2.076 2.076 0 0 0 .184.905h.001l.011.024.01.023.033.064zm3.748 36.954a11.905 11.905 0 0 1-2.74 1.806 11.831 11.831 0 0 1-4.524 1.148c-1.373.07-2.775-.072-4.144-.519-2.66-.783-4.542-2.618-5.76-4.77l-.026-.046-.025-.047c-.905-1.683-1.609-3.502-2.133-5.434l-.017-.06-.015-.06a39.09 39.09 0 0 1-.956-5.617 100.13 100.13 0 0 1-.326-4.186 36.471 36.471 0 0 1 .038-4.009l.004-.06.005-.058c.117-1.405.271-2.81.463-4.216l.007-.05.008-.052c.217-1.374.436-2.714.656-4.02.23-1.355.472-2.596.73-3.715a21.95 21.95 0 0 1 1.183-3.633l.015-.034.015-.034a19.201 19.201 0 0 1 2.178-3.771 14.45 14.45 0 0 1 3.304-3.232 10.214 10.214 0 0 1 5.447-1.904c1.482-.076 3.012.102 4.491.67 1.32.493 2.56 1.23 3.623 2.259a10.31 10.31 0 0 1 2.281 3.267c.568 1.21.903 2.506.972 3.861.034.652-.008 1.32-.086 1.963a14.429 14.429 0 0 1 6.04 1.123c2.037.822 3.814 2.072 5.318 3.672.312.331.609.675.89 1.03.015.7.04 1.402.076 2.106a57.08 57.08 0 0 0 .287 3.475 59.67 59.67 0 0 0 .783 4.972 54.2 54.2 0 0 0 1.9 6.912l.01.024c.138.398.28.796.429 1.194a21.376 21.376 0 0 1-1.733 4.72 16.107 16.107 0 0 1-3.87 5.066l-.007.006-.008.007c-1.98 1.717-4.364 2.613-6.927 2.744-2.824.145-5.581-.591-7.856-2.498zm.977-34-1.164-1.05a4.127 4.127 0 0 0 1.061-1.83m-1.06 1.83 1.163 1.05z" clip-rule="evenodd"/><path fill="#FFCA00" d="M67 36c0 3.314-3.462 7-6.5 7-3 .5-13.5 4.314-13.5 1s10.462-13 13.5-13c3.038 0 6.5 1.686 6.5 5zm1.5-11c-1.232 3.076-3.637 4.5-8.1 4.16-2.97-.652-14.136-1.017-12.904-4.093C48.73 21.99 61.18 16.87 64 18c2.82 1.13 5.732 3.924 4.5 7z"/></svg>